<svg id="Layer_1" data-name="Layer 1" xmlns="http://www.w3.org/2000/svg" viewBox="0 0 1738.64 932.7"><defs><style>.cls-1{fill:#312783;}.cls-2{fill:#f68d20;}.cls-3{fill:#2d2e83;}.cls-4,.cls-5,.cls-6{fill:#ec7142;}.cls-5{font-size:266px;}.cls-5,.cls-6{font-family:Krungthep;}.cls-6{font-size:250px;}</style></defs><title>theTutor4u</title><path class="cls-1" d="M207.07,189.67H503.42q-.24,22.08-.49,44.16H388.71q.26,273.18.52,546.35H321.18q0-273.16.08-546.35H207Z" transform="translate(-206.98 -179.67)"/><path class="cls-1" d="M725.86,903.73c0,42.07-31.9,67.66-88,67.66s-93.13-23.49-93.13-67.66l0-368.92H476.46q.45,184.46.89,368.92c0,74,73.58,109.72,160,109.72,90.55,0,155.9-37.16,155.9-109.72V534.81H727.73Z" transform="translate(-206.98 -179.67)"/><path class="cls-1" d="M838.5,576.88H952.72V780.19h67.91V576.88h114.22V534.81H838.5Z" transform="translate(-206.98 -179.67)"/><path class="cls-1" d="M1927.61,616.14c0-42.42-44.76-81-129.65-81.33-57.11,0-114.22-.35-171.33-.35V780.19h67.91v-82h65.34l105,82h80.78V777l-109.08-83.78C1905,683.79,1927.61,649.79,1927.61,616.14Zm-233.07,40.31V577.93H1798c42.7,0,61.73,19.63,61.73,39.26s-18.51,39.26-61.73,39.26Z" transform="translate(-206.98 -179.67)"/><path class="cls-2" d="M1492.86,464.1a170,170,0,0,0-240.21-.08c-66.22,66.23-66.22,174.06.08,240.29l120.06,120.06L1493.17,704C1559.08,637.85,1558.93,530.17,1492.86,464.1Zm-46.52,193.07-73.55,73.55-73.23-73.24a103.51,103.51,0,0,1,73.16-176.86h.07a103.59,103.59,0,0,1,73.55,176.55Z" transform="translate(-206.98 -179.67)"/><path class="cls-3" d="M1372.72,414.39A169.32,169.32,0,0,0,1252.65,464c-66.22,66.23-66.22,174.06.08,240.29l120.06,120.06L1493.17,704c65.91-66.14,65.76-173.82-.31-239.89A169.52,169.52,0,0,0,1372.72,414.39Zm73.62,242.78-73.55,73.55-73.23-73.24a103.51,103.51,0,0,1,73.16-176.86h.07a103.59,103.59,0,0,1,73.55,176.55Z" transform="translate(-206.98 -179.67)"/><path class="cls-3" d="M1511.32,438.7V360c-39.19-11.84-83-18.86-129.25-19.64-3.12-.15-6.16-.15-9.35-.15-3,0-6.16,0-9.28.15-46.2.78-90.06,7.8-129.25,19.64v78.61a200.91,200.91,0,0,1,277.13.08Z" transform="translate(-206.98 -179.67)"/><path class="cls-3" d="M1080,301l133.62,55.37v-7.22l13.05-4c45.77-13.89,94.92-20.91,146.13-20.91s100.31,7,146.08,20.91l13.09,4v7.19l49.79-20.63a330.21,330.21,0,0,1,3.88,56.4,22.26,22.26,0,0,1,28.5-1.54c-2.8-29.76-6.6-54.5-8.09-63.73a3.68,3.68,0,0,0-.4-1l59.9-24.81L1372.78,179.67Z" transform="translate(-206.98 -179.67)"/><path class="cls-3" d="M1587,494.5a57.6,57.6,0,0,0,14.57,33.17,3.66,3.66,0,0,0,6.07-1c9.91-23.75,11-63.86,9.05-102.24a22.37,22.37,0,0,1-33.54-2.15c-2.8,18.27-8.22,36.26-17.95,50.84a3.68,3.68,0,0,0,2.54,5.75C1574.94,479.7,1585.75,482.93,1587,494.5Z" transform="translate(-206.98 -179.67)"/><path class="cls-4" d="M1600.81,392.92a15.66,15.66,0,1,0,12.27,6A15.62,15.62,0,0,0,1600.81,392.92Z" transform="translate(-206.98 -179.67)"/><circle class="cls-4" cx="1372.76" cy="583.81" r="47.72" transform="translate(-246.16 -77.23) rotate(-4.21)"/><text class="cls-5" transform="translate(247.17 298.42) scale(1.11 1)">HE</text><path class="cls-4" d="M207.07,189.67H503.42q-.24,22.08-.49,44.16H389.71q-.33,121.77-.65,243.54H322.3q-.53-121.77-1-243.54H207Z" transform="translate(-206.98 -179.67)"/><text class="cls-6" transform="translate(58.93 830.94)">4</text><path class="cls-1" d="M388,793.47" transform="translate(-206.98 -179.67)"/></svg>